<svg xmlns="http://www.w3.org/2000/svg" width="42" height="42" viewBox="0 0 42 42">
  <g id="그룹_24" data-name="그룹 24" transform="translate(-260 -82)">
    <g id="그룹_6" data-name="그룹 6" transform="translate(0 55)">
      <circle id="타원_24" data-name="타원 24" cx="21" cy="21" r="21" transform="translate(260 27)" fill="#00b3ed"/>
      <path id="교차_5" data-name="교차 5" d="M1106.2,2260a21.018,21.018,0,0,1,24.655-20.683q-.1.241-.213.52a46.578,46.578,0,0,1-3.982,7.69c-1.237,1.75-3.667,2.083-4.619,2.533s-2.6,2.085-2.077,3.1,2.763,3.486,2.077,3.821-2.746,1.565-2.746,1.565-.132-2.64-.563-2.745-1.408-.039-1.736-.461a5.868,5.868,0,0,1-.484-1.906s-2.434,1.944-1.968,3.986,3.222,6.936,1.866,8.167a19.271,19.271,0,0,1-5.851,4.128,16.318,16.318,0,0,1-1.684.553A20.9,20.9,0,0,1,1106.2,2260Z" transform="translate(-846.201 -2212)" fill="#65d8b5"/>
      <path id="교차_6" data-name="교차 6" d="M1112.893,2275.825a1.974,1.974,0,0,1,.823-.527c1.751-.584,3.708-.275,5.15-.515s3.226-2.206,4.428-2.987,4.36,3.021,6.214,5.665a2.515,2.515,0,0,1,.359.708,21.059,21.059,0,0,1-16.974-2.344Z" transform="translate(-843 -2210)" fill="#65d8b5"/>
      <path id="교차_7" data-name="교차 7" d="M1139.516,2267.416c.39-2.521,1.517-6.426,1.562-10.085s-6.441-10.136-5.444-13.3a7.144,7.144,0,0,1,1.352-2.537,21,21,0,0,1,2.477,30.714A27.12,27.12,0,0,1,1139.516,2267.416Z" transform="translate(-843 -2210)" fill="#65d8b5"/>
      <path id="교차_8" data-name="교차 8" d="M1127.307,2263.786a3.884,3.884,0,0,1,.554-2.245c.555-.911,1.255-1.538,1.664-1.4s.5,1.162,0,2.139a3.8,3.8,0,0,1-2.034,1.716C1127.372,2264,1127.3,2263.934,1127.307,2263.786Z" transform="translate(-843 -2210)" fill="#65d8b5"/>
      <path id="교차_9" data-name="교차 9" d="M1127.307,2260.95a.9.9,0,0,1,.121-.507c.122-.206.275-.347.365-.316s.11.262,0,.483a.84.84,0,0,1-.446.387C1127.321,2261,1127.305,2260.983,1127.307,2260.95Z" transform="translate(-851 -2219)" fill="#65d8b5"/>
    </g>
    <path id="빼기_4" data-name="빼기 4" d="M981.1,2260.106v0c-.069-.7-.1-1.4-.1-2.1a21,21,0,1,1,42,0c0,.509-.018,1.024-.055,1.531a40.542,40.542,0,0,0-41.839.574Z" transform="translate(-721 -2155)" fill="rgba(0,0,0,0.3)"/>
  </g>
</svg>
