<svg xmlns="http://www.w3.org/2000/svg" width="51.95" height="51.95" viewBox="0 0 51.95 51.95">
  <g id="그룹_27" data-name="그룹 27" transform="translate(-477.631 -77.38)">
    <g id="그룹_13" data-name="그룹 13" transform="translate(81.384 -67.649) rotate(16)">
      <circle id="타원_38" data-name="타원 38" cx="21" cy="21" r="21" transform="translate(432 27)" fill="#f6dac5"/>
      <path id="교차_22" data-name="교차 22" d="M1123.509,2278.953c-.536-.028-1.076-.047-1.616-.058a20.98,20.98,0,0,1-14.846-8.5c3.42-.175,10.7-.456,17.336-.108a126.728,126.728,0,0,1,15.2,1.792,20.941,20.941,0,0,1-15.323,6.919Q1123.884,2278.973,1123.509,2278.953Z" transform="translate(-671 -2210)" fill="#e7b487"/>
      <path id="교차_14" data-name="교차 14" d="M1136.615,2250.133a141.376,141.376,0,0,1-25.645-6.909,20.936,20.936,0,0,1,7.241-3.722,146.1,146.1,0,0,0,19.361,4.587l.581.09a21.065,21.065,0,0,1,4.951,6.782C1140.953,2250.746,1138.77,2250.474,1136.615,2250.133Z" transform="translate(-671 -2211.694)" fill="#d49373"/>
      <path id="교차_15" data-name="교차 15" d="M1128.893,2258.725a59.015,59.015,0,0,1-12.885-6.436,21.1,21.1,0,0,1,5.393-4.67,56.963,56.963,0,0,0,10.125,4.721,74.971,74.971,0,0,0,19.3,3.47,20.864,20.864,0,0,1,2.191,6.688C1146.705,2262.335,1137.137,2261.563,1128.893,2258.725Z" transform="translate(-679.247 -2217.604)" fill="#e5b587"/>
      <path id="교차_16" data-name="교차 16" d="M1129.188,2253.315a89.945,89.945,0,0,1-12.923-5.15,21.042,21.042,0,0,1,2.508-3.707,90.034,90.034,0,0,0,12.1,4.749,124.465,124.465,0,0,0,24.484,4.379,21.078,21.078,0,0,1,.464,4.38C1150.1,2257.512,1138.956,2256.3,1129.188,2253.315Z" transform="translate(-681.823 -2210)" fill="#f6dac5"/>
      <path id="교차_21" data-name="교차 21" d="M1124.359,2274.692a115.385,115.385,0,0,0-12.89.161,21.1,21.1,0,0,1-5.33-5.8c1.917-.036,10.881-.172,18.923.249,6.826.358,12.986,1.117,15.611,1.47a21.107,21.107,0,0,1-5.694,5.136A94.678,94.678,0,0,0,1124.359,2274.692Z" transform="translate(-671 -2210)" fill="#f6dac5"/>
      <path id="교차_20" data-name="교차 20" d="M1151.344,2271.076c-4.926,0-9.932.073-14.766.189a20.986,20.986,0,0,1-3.187-5.375c6.168-.081,12.7-.137,19.027-.137,7.062,0,13.858.07,19.9.167a20.982,20.982,0,0,1-3.252,5.44C1163.527,2271.191,1157.5,2271.076,1151.344,2271.076Z" transform="translate(-699.859 -2210)" fill="#d29272"/>
      <path id="교차_19" data-name="교차 19" d="M1128.985,2267.808c-5.6-.49-10.9-1.089-15.238-1.629a20.884,20.884,0,0,1-1.589-6.533c4.837.856,11.259,1.839,17.973,2.426,8.628.755,17.74.858,23.388.828a20.879,20.879,0,0,1-2.68,6.334C1145.018,2268.953,1136.721,2268.485,1128.985,2267.808Z" transform="translate(-680.095 -2210)" fill="#f6dac5"/>
      <path id="교차_18" data-name="교차 18" d="M1129.307,2265.58a143.625,143.625,0,0,1-17.118-2.63,21.047,21.047,0,0,1-.587-4.95q0-.916.077-1.811a123.831,123.831,0,0,0,18.186,3.086,165.035,165.035,0,0,0,23.7.028,20.888,20.888,0,0,1-1.516,6.645c-2.5.1-5.554.174-8.873.174C1138.8,2266.122,1133.961,2265.987,1129.307,2265.58Z" transform="translate(-679.601 -2210)" fill="#e7b488"/>
      <path id="교차_17" data-name="교차 17" d="M1128.948,2260.007c-4.5-1.375-8.718-2.586-12.37-3.6a20.878,20.878,0,0,1,3.018-9.362,79.469,79.469,0,0,0,12.41,5.056c9.646,2.948,20.646,3.876,26.442,4.167q.07.855.07,1.728a21.142,21.142,0,0,1-.316,3.649,98.707,98.707,0,0,1-11.29.661A63.126,63.126,0,0,1,1128.948,2260.007Z" transform="translate(-684.519 -2210)" fill="#d39272"/>
    </g>
    <path id="빼기_6" data-name="빼기 6" d="M981.1,2260.106v0c-.069-.7-.1-1.4-.1-2.1a21,21,0,1,1,42,0c0,.509-.018,1.024-.055,1.531a40.542,40.542,0,0,0-41.839.574Z" transform="translate(-498.395 -2154.645)" fill="rgba(0,0,0,0.3)"/>
  </g>
</svg>
