<svg xmlns="http://www.w3.org/2000/svg" width="51.95" height="51.95" viewBox="0 0 51.95 51.95">
  <g id="그룹_19" data-name="그룹 19" transform="translate(-408.705 -22.539)">
    <circle id="타원_32" data-name="타원 32" cx="21" cy="21" r="21" transform="translate(408.705 34.116) rotate(-16)" fill="#dd4530"/>
    <path id="교차_10" data-name="교차 10" d="M1124.847,2253.872c-1.334-.485-2.62-1.01-3.854-1.564a21.038,21.038,0,0,1,2.646-3.857q.975.677,1.954,1.354c9.5,6.56,27.009,4.068,27.009,4.068a63.048,63.048,0,0,1-15.2,1.952A37.147,37.147,0,0,1,1124.847,2253.872Z" transform="matrix(0.956, -0.292, 0.292, 0.956, -1316.46, -1781.642)" fill="#c12927"/>
    <path id="교차_11" data-name="교차 11" d="M1115.7,2261.3a61.689,61.689,0,0,0,8.563-.288,62.867,62.867,0,0,1-12.005-1.859s17.5,2.492,27.01-4.068c1.608-1.11,3.216-2.232,4.785-3.319A21,21,0,0,1,1145,2258c0,.025,0,.051,0,.076q-.809.409-1.647.8c-5.519,2.574-12.023,3.251-17.335,3.251A61.878,61.878,0,0,1,1115.7,2261.3Z" transform="matrix(0.956, -0.292, 0.292, 0.956, -1300.383, -1782.197)" fill="#c12927"/>
    <path id="교차_12" data-name="교차 12" d="M1126.076,2274.614a35.614,35.614,0,0,1-4.452-.843,21.085,21.085,0,0,1-4.515-5.608c2.9.619,6.13,1.2,9.561,1.617a112.268,112.268,0,0,0,23.377.385,46.154,46.154,0,0,1-19.643,4.708A35.509,35.509,0,0,1,1126.076,2274.614Z" transform="matrix(0.956, -0.292, 0.292, 0.956, -1311.37, -1778.837)" fill="#c12927"/>
  </g>
</svg>
