<svg xmlns="http://www.w3.org/2000/svg" width="42" height="42" viewBox="0 0 42 42">
  <g id="그룹_3" data-name="그룹 3" transform="translate(-114 -26)">
    <circle id="타원_2" data-name="타원 2" cx="21" cy="21" r="21" transform="translate(114 26)" fill="#f1dcbd"/>
    <circle id="타원_3" data-name="타원 3" cx="9.5" cy="9.5" r="9.5" transform="translate(130 32)" fill="#e2cdb2"/>
    <path id="교차_1" data-name="교차 1" d="M1105.948,2192.736a9.5,9.5,0,0,1,15.974,10.163A21,21,0,0,1,1105.948,2192.736Z" transform="translate(-989 -2135)" fill="#e2cdb2"/>
    <circle id="타원_6" data-name="타원 6" cx="2.5" cy="2.5" r="2.5" transform="translate(136 35)" fill="#c6a49a"/>
    <circle id="타원_7" data-name="타원 7" cx="1.5" cy="1.5" r="1.5" transform="translate(133 42)" fill="#c1a480"/>
    <circle id="타원_8" data-name="타원 8" cx="1.5" cy="1.5" r="1.5" transform="translate(128 51)" fill="#c6a49a"/>
    <circle id="타원_9" data-name="타원 9" cx="1.5" cy="1.5" r="1.5" transform="translate(149 54)" fill="#c6a49a"/>
    <circle id="타원_10" data-name="타원 10" cx="1.5" cy="1.5" r="1.5" transform="translate(133 42)" fill="#c6a49a"/>
    <circle id="타원_11" data-name="타원 11" cx="1.5" cy="1.5" r="1.5" transform="translate(122 35)" fill="#c6a49a"/>
    <circle id="타원_12" data-name="타원 12" cx="1.5" cy="1.5" r="1.5" transform="translate(127 60)" fill="#c6a49a"/>
  </g>
</svg>
