<svg xmlns="http://www.w3.org/2000/svg" width="42" height="42" viewBox="0 0 42 42">
  <g id="그룹_41" data-name="그룹 41" transform="translate(-812.384 -85)">
    <g id="그룹_40" data-name="그룹 40" transform="translate(0 55)">
      <g id="그룹_35" data-name="그룹 35" transform="translate(152.84 2)">
        <g id="그룹_39" data-name="그룹 39">
          <path id="패스_50" data-name="패스 50" d="M21,0A21,21,0,1,1,0,21,21,21,0,0,1,21,0Z" transform="translate(659.544 28)" fill="#2c52b7"/>
          <path id="교차_27" data-name="교차 27" d="M1121.649,2268.566l39.152-10.491a21,21,0,0,1-39.152,10.491Z" transform="translate(-459.257 -2209)" fill="#2c52b7"/>
          <path id="교차_26" data-name="교차 26" d="M1118.939,2260.426l40.144-10.757a21.089,21.089,0,0,1,.823,14.411c-7.275,4.191-15.854,8.448-23.632,10.532a58.574,58.574,0,0,1-7.187,1.453A21,21,0,0,1,1118.939,2260.426Z" transform="translate(-459.257 -2209)" fill="#3b55d0"/>
          <path id="교차_25" data-name="교차 25" d="M1119.878,2264.658a21.06,21.06,0,0,1,1.538-16.816l29.226-7.831a21.05,21.05,0,0,1,9.326,12.114c-7.288,4.2-15.893,8.477-23.693,10.567a57.674,57.674,0,0,1-14.938,1.985Q1120.6,2264.677,1119.878,2264.658Z" transform="translate(-459.257 -2209)" fill="#ffe577"/>
          <path id="교차_30" data-name="교차 30" d="M1122.209,2269.473a21.01,21.01,0,0,1,.641-23.872l32.994-1.152a21.045,21.045,0,0,1,4.6,17.448c-7.741,4.251-18.217,8.973-26.995,9.279q-.54.019-1.072.019A31.185,31.185,0,0,1,1122.209,2269.473Z" transform="translate(-459.257 -2209)" fill="#2c52b7"/>
          <path id="교차_29" data-name="교차 29" d="M1105.916,2255.206a20.875,20.875,0,0,1,3.3-8.537L1136,2239.49a21.094,21.094,0,0,1,8.691,8.012c-5.306,3.085-11.646,6.269-17.379,7.8a41.318,41.318,0,0,1-10.7,1.422A36.536,36.536,0,0,1,1105.916,2255.206Z" transform="translate(-446.143 -2209.317)" fill="#3b54d2"/>
          <path id="교차_28" data-name="교차 28" d="M1105.95,2250.615l-.248-.926a21.1,21.1,0,0,1,8.072-8.035l9.895-2.651.332,0a20.955,20.955,0,0,1,16.133,7.555,62.194,62.194,0,0,1-11.507,4.608,41.318,41.318,0,0,1-10.7,1.422A33.673,33.673,0,0,1,1105.95,2250.615Z" transform="translate(-443.456 -2211)" fill="#2c52b7"/>
        </g>
      </g>
    </g>
    <path id="빼기_12" data-name="빼기 12" d="M981.1,2260.106v0c-.069-.7-.1-1.4-.1-2.1a21,21,0,1,1,42,0c0,.509-.018,1.024-.055,1.531a40.542,40.542,0,0,0-41.839.574Z" transform="translate(-168.616 -2152)" fill="rgba(0,0,0,0.3)"/>
  </g>
</svg>
