<svg xmlns="http://www.w3.org/2000/svg" width="42" height="42" viewBox="0 0 42 42">
  <g id="그룹_33" data-name="그룹 33" transform="translate(-732 -85)">
    <g id="그룹_32" data-name="그룹 32" transform="translate(0 55)">
      <circle id="타원_74" data-name="타원 74" cx="21" cy="21" r="21" transform="translate(732 30)" fill="#7bbdff"/>
      <path id="교차_34" data-name="교차 34" d="M1146.5,2264.37c5.472-.158,10.02-.09,10.1-3.931.122-5.8.854-15.523,12.313-14.192,5.492.638,8.336-.5,9.807-1.861a21,21,0,0,1,9.511,15.215l-31.588,20.513A21,21,0,0,1,1146.5,2264.37Z" transform="translate(-414.378 -2211.06)" fill="#64aaff"/>
      <path id="교차_33" data-name="교차 33" d="M1110.656,2273.192a6.083,6.083,0,0,1,3.921-3.87c5.947-1.8,1.29-5.215,6.162-7.57,2.087-1.009,4.972-.581,7.527-.154,3.407.57,6.231,1.14,5.8-1.7-.661-4.347-1.432-11.57,6.06-9.11,2.406.791,3.951.829,4.939.516a21.032,21.032,0,0,1-4.213,20.64l-9.359,6.078a21.035,21.035,0,0,1-20.838-4.834Z" transform="translate(-372.155 -2207)" fill="#5571b6"/>
      <path id="교차_32" data-name="교차 32" d="M1127.924,2275.815c7.252.017,15.185-1.187,16.863-6.173s9.462-6.952,14.9-7.729a21.008,21.008,0,0,1-31.76,13.9Z" transform="translate(-386.048 -2207)" fill="#515b99"/>
    </g>
    <path id="빼기_11" data-name="빼기 11" d="M981.1,2260.106v0c-.069-.7-.1-1.4-.1-2.1a21,21,0,1,1,42,0c0,.509-.018,1.024-.055,1.531a40.542,40.542,0,0,0-41.839.574Z" transform="translate(-249 -2152)" fill="rgba(0,0,0,0.3)"/>
  </g>
</svg>
