<svg xmlns="http://www.w3.org/2000/svg" width="42" height="42" viewBox="0 0 42 42">
  <g id="그룹_1" data-name="그룹 1" transform="translate(-187 -26)">
    <circle id="타원_17" data-name="타원 17" cx="21" cy="21" r="21" transform="translate(187 26)" fill="#eba655"/>
    <path id="교차_2" data-name="교차 2" d="M1114.549,2272.26a69.445,69.445,0,0,0,19.071-7.085,70.668,70.668,0,0,0,16.32-13.672,21.078,21.078,0,0,1-1,15.51,61.9,61.9,0,0,1-10.229,7.557,58.205,58.205,0,0,1-9.737,4.407A20.941,20.941,0,0,1,1114.549,2272.26Z" transform="translate(-921.964 -2211)" fill="#f7c082"/>
    <path id="교차_3" data-name="교차 3" d="M1114.208,2265.2a80.013,80.013,0,0,0,34.018-19.494,21.1,21.1,0,0,1,5.014,5.932,93.939,93.939,0,0,1-16.826,12.868,90.3,90.3,0,0,1-19.59,8.071A20.859,20.859,0,0,1,1114.208,2265.2Z" transform="translate(-926.964 -2214.994)" fill="#e1954d"/>
    <path id="교차_4" data-name="교차 4" d="M1117.688,2268.806a20.987,20.987,0,0,1,.99-6.389,117.511,117.511,0,0,0,13.148-6.44,116.3,116.3,0,0,0,11.484-7.662,20.855,20.855,0,0,1,6.008,2.375A126.077,126.077,0,0,1,1134.388,2261a122.17,122.17,0,0,1-16.7,7.858C1117.689,2268.84,1117.688,2268.823,1117.688,2268.806Z" transform="translate(-930.688 -2221.806)" fill="#f7c082"/>
  </g>
</svg>
