<svg xmlns="http://www.w3.org/2000/svg" width="56.49" height="56.49" viewBox="0 0 56.49 56.49">
  <g id="그룹_26" data-name="그룹 26" transform="translate(-406 -74.755)">
    <g id="그룹_11" data-name="그룹 11" transform="matrix(0.891, -0.454, 0.454, 0.891, 97.928, 220.49)">
      <circle id="타원_32" data-name="타원 32" cx="21" cy="21" r="21" transform="translate(332 27)" fill="#dd4530"/>
      <path id="교차_10" data-name="교차 10" d="M1124.847,2253.872c-1.334-.485-2.62-1.01-3.854-1.564a21.038,21.038,0,0,1,2.646-3.857q.975.677,1.954,1.354c9.5,6.56,27.009,4.068,27.009,4.068a63.048,63.048,0,0,1-15.2,1.952A37.147,37.147,0,0,1,1124.847,2253.872Z" transform="translate(-786.537 -2214.17)" fill="#c12927"/>
      <path id="교차_11" data-name="교차 11" d="M1115.7,2261.3a61.689,61.689,0,0,0,8.563-.288,62.867,62.867,0,0,1-12.005-1.859s17.5,2.492,27.01-4.068c1.608-1.11,3.216-2.232,4.785-3.319A21,21,0,0,1,1145,2258c0,.025,0,.051,0,.076q-.809.409-1.647.8c-5.519,2.574-12.023,3.251-17.335,3.251A61.878,61.878,0,0,1,1115.7,2261.3Z" transform="translate(-771 -2210)" fill="#c12927"/>
      <path id="교차_12" data-name="교차 12" d="M1126.076,2274.614a35.614,35.614,0,0,1-4.452-.843,21.085,21.085,0,0,1-4.515-5.608c2.9.619,6.13,1.2,9.561,1.617a112.268,112.268,0,0,0,23.377.385,46.154,46.154,0,0,1-19.643,4.708A35.509,35.509,0,0,1,1126.076,2274.614Z" transform="translate(-782.49 -2210)" fill="#c12927"/>
    </g>
    <path id="빼기_5" data-name="빼기 5" d="M981.1,2260.106v0c-.069-.7-.1-1.4-.1-2.1a21,21,0,1,1,42,0c0,.509-.018,1.024-.055,1.531a40.542,40.542,0,0,0-41.839.574Z" transform="translate(-567.755 -2155)" fill="rgba(0,0,0,0.3)"/>
  </g>
</svg>
