<svg xmlns="http://www.w3.org/2000/svg" width="42" height="42" viewBox="0 0 42 42">
  <g id="그룹_25" data-name="그룹 25" transform="translate(-333 -82)">
    <g id="그룹_15" data-name="그룹 15" transform="translate(0 56)">
      <circle id="타원_2" data-name="타원 2" cx="21" cy="21" r="21" transform="translate(333 26)" fill="#dae0e0"/>
      <circle id="타원_3" data-name="타원 3" cx="6" cy="6" r="6" transform="translate(354 31)" fill="#bec3c6"/>
      <path id="교차_1" data-name="교차 1" d="M1105.948,2192.736a9.5,9.5,0,0,1,15.974,10.163A21,21,0,0,1,1105.948,2192.736Z" transform="translate(-770 -2135)" fill="#bec3c6"/>
      <circle id="타원_51" data-name="타원 51" cx="1.5" cy="1.5" r="1.5" transform="translate(365 52)" fill="#bec3c6"/>
      <circle id="타원_52" data-name="타원 52" cx="2.5" cy="2.5" r="2.5" transform="translate(354 50)" fill="#bec3c6"/>
      <circle id="타원_53" data-name="타원 53" cx="2.5" cy="2.5" r="2.5" transform="translate(339 42)" fill="#bec3c6"/>
    </g>
    <path id="빼기_7" data-name="빼기 7" d="M1122.1,2260.106v0c-.069-.694-.1-1.4-.1-2.1a21,21,0,1,1,42,0c0,.508-.019,1.023-.055,1.531a40.542,40.542,0,0,0-41.839.574Z" transform="translate(-789 -2155)" fill="rgba(0,0,0,0.11)"/>
  </g>
</svg>
