<svg xmlns="http://www.w3.org/2000/svg" width="42" height="42" viewBox="0 0 42 42">
  <g id="그룹_31" data-name="그룹 31" transform="translate(-659.544 -84.36)">
    <g id="그룹_30" data-name="그룹 30" transform="translate(0 56.36)">
      <circle id="타원_57" data-name="타원 57" cx="21" cy="21" r="21" transform="translate(659.544 28)" fill="#fff39f"/>
      <path id="교차_27" data-name="교차 27" d="M1121.649,2268.566l39.152-10.491a21,21,0,0,1-39.152,10.491Z" transform="translate(-459.257 -2209)" fill="#ffe575"/>
      <path id="교차_26" data-name="교차 26" d="M1118.939,2260.426l40.144-10.757a21.089,21.089,0,0,1,.823,14.411c-7.275,4.191-15.854,8.448-23.632,10.532a58.574,58.574,0,0,1-7.187,1.453A21,21,0,0,1,1118.939,2260.426Z" transform="translate(-459.257 -2209)" fill="#fff39f"/>
      <path id="교차_25" data-name="교차 25" d="M1119.878,2264.658a21.06,21.06,0,0,1,1.538-16.816l29.226-7.831a21.05,21.05,0,0,1,9.326,12.114c-7.288,4.2-15.893,8.477-23.693,10.567a57.674,57.674,0,0,1-14.938,1.985Q1120.6,2264.677,1119.878,2264.658Z" transform="translate(-459.257 -2209)" fill="#ffe577"/>
      <path id="교차_24" data-name="교차 24" d="M1124.493,2253.273a40.568,40.568,0,0,1-15.7-5.946,21.083,21.083,0,0,1,9.442-8.238l22.432,3.553a21,21,0,0,1,6.292,10.156,109.8,109.8,0,0,1-14.187,1.049A53.583,53.583,0,0,1,1124.493,2253.273Z" transform="translate(-446.143 -2209.317)" fill="#fff39f"/>
      <path id="교차_23" data-name="교차 23" d="M1108.554,2245.772a21,21,0,0,1,32.729,2.3,66.978,66.978,0,0,1-14.522,1.961A40.193,40.193,0,0,1,1108.554,2245.772Z" transform="translate(-443.456 -2211)" fill="#ffe577"/>
      <path id="교차_31" data-name="교차 31" d="M1118.8,2258a21.106,21.106,0,0,1,.367-3.927l41.489,1.449a21.241,21.241,0,0,1,.145,2.478c0,.064,0,.127,0,.19-7.638,2.614-18.895,2.991-27.283,2.7-5.505-.192-10.372-.111-14.5.1A21.181,21.181,0,0,1,1118.8,2258Z" transform="translate(-459.257 -2209)" fill="#fff39f"/>
      <path id="교차_30" data-name="교차 30" d="M1119.878,2264.658a21.06,21.06,0,0,1,1.538-16.816l29.226-7.831a21.05,21.05,0,0,1,9.326,12.114c-7.288,4.2-15.893,8.477-23.693,10.567a57.674,57.674,0,0,1-14.938,1.985Q1120.6,2264.677,1119.878,2264.658Z" transform="translate(-459.257 -2209)" fill="#ffe577"/>
      <path id="교차_29" data-name="교차 29" d="M1105.916,2255.206a20.875,20.875,0,0,1,3.3-8.537L1136,2239.49a21.094,21.094,0,0,1,8.691,8.012c-5.306,3.085-11.646,6.269-17.379,7.8a41.318,41.318,0,0,1-10.7,1.422A36.536,36.536,0,0,1,1105.916,2255.206Z" transform="translate(-446.143 -2209.317)" fill="#fff39f"/>
      <path id="교차_28" data-name="교차 28" d="M1105.95,2250.615l-.248-.926a21.1,21.1,0,0,1,8.072-8.035l9.895-2.651.332,0a20.955,20.955,0,0,1,16.133,7.555,62.194,62.194,0,0,1-11.507,4.608,41.318,41.318,0,0,1-10.7,1.422A33.673,33.673,0,0,1,1105.95,2250.615Z" transform="translate(-443.456 -2211)" fill="#ffe577"/>
    </g>
    <path id="빼기_10" data-name="빼기 10" d="M981.1,2260.106v0c-.069-.7-.1-1.4-.1-2.1a21,21,0,1,1,42,0c0,.509-.018,1.024-.055,1.531a40.542,40.542,0,0,0-41.839.574Z" transform="translate(-321.456 -2152.64)" fill="rgba(0,0,0,0.3)"/>
  </g>
</svg>
